# xmcd
#
# Track frame offsets: 
#        150
#        17145
#        35935
#        81229
#        103011
#        119187
#        145320
#
# Disc length: 2654 seconds
#
# Revision: 0
# Processed by: cddbd v1.5.2PL0 Copyright (c) Steve Scherf et al.
# Submitted via: ExactAudioCopy v0.95b4
#
DISCID=670a5c07
DTITLE=Наумов Юрий - Первый акустический концерт
DYEAR=1988
DGENRE=Blues
TTITLE0=01_Солдаты рок-н-рола
TTITLE1=02_Блюз 666
TTITLE2=03_Катафалк
TTITLE3=04_Кошка на раскаленной крыше
TTITLE4=05_Я вернулся, мама
TTITLE5=06_Возвращение блудного сына
TTITLE6=07_Этой ночью
EXTD=
EXTT0=
EXTT1=
EXTT2=
EXTT3=
EXTT4=
EXTT5=
EXTT6=
PLAYORDER=
